HIERARCHY
ROOT hip
{
	OFFSET 0.000000 0.000000 0.000000 
	CHANNELS 6 Xposition Yposition Zposition Xrotation Zrotation Yrotation
	JOINT abdomen
	{
		OFFSET 0.000000 3.402643 0.000000 
		CHANNELS 3 Xrotation Zrotation Yrotation
		JOINT chest
		{
			OFFSET 0.000000 8.438565 -0.680529 
			CHANNELS 3 Xrotation Zrotation Yrotation
			JOINT neck
			{
				OFFSET 0.000000 10.207942 -0.272212 
				CHANNELS 3 Xrotation Zrotation Yrotation
				JOINT head
				{
					OFFSET 0.000000 3.130431 0.000000 
					CHANNELS 3 Xrotation Zrotation Yrotation
					End Site
					{
						OFFSET 0.000000 3.130435 0.000000 
					}
				}
			}
			JOINT lCollar
			{
				OFFSET 3.470700 6.669187 -0.816635 
				CHANNELS 3 Yrotation Zrotation Xrotation
				JOINT lShldr
				{
					OFFSET 3.198488 0.000000 0.000000 
					CHANNELS 3 Zrotation Yrotation Xrotation
					JOINT lForeArm
					{
						OFFSET 10.139888 0.000000 0.000000 
						CHANNELS 3 Yrotation Zrotation Xrotation
						JOINT lHand
						{
							OFFSET 8.370511 0.000000 0.000000 
							CHANNELS 3 Zrotation Yrotation Xrotation
							End Site
							{
								OFFSET 4.083176 0.000000 0.000000 
							}
						}
					}
				}
			}
			JOINT rCollar
			{
				OFFSET -3.470700 6.669187 -0.816635 
				CHANNELS 3 Yrotation Zrotation Xrotation
				JOINT rShldr
				{
					OFFSET -3.198488 0.000000 0.000000 
					CHANNELS 3 Zrotation Yrotation Xrotation
					JOINT rForeArm
					{
						OFFSET -10.139888 0.000000 0.000000 
						CHANNELS 3 Yrotation Zrotation Xrotation
						JOINT rHand
						{
							OFFSET -8.370511 0.000000 0.000000 
							CHANNELS 3 Zrotation Yrotation Xrotation
							End Site
							{
								OFFSET -4.083176 0.000000 0.000000 
							}
						}
					}
				}
			}
		}
	}
	JOINT lThigh
	{
		OFFSET 5.308129 -1.633274 1.361059 
		CHANNELS 3 Xrotation Zrotation Yrotation
		JOINT lShin
		{
			OFFSET -2.041588 -20.007561 0.000000 
			CHANNELS 3 Xrotation Zrotation Yrotation
			JOINT lFoot
			{
				OFFSET 0.000000 -19.190928 -1.224953 
				CHANNELS 3 Xrotation Yrotation Zrotation
				End Site
				{
					OFFSET 0.000000 -2.449906 4.627600 
				}
			}
		}
	}
	JOINT rThigh
	{
		OFFSET -5.308129 -1.633274 1.361059 
		CHANNELS 3 Xrotation Zrotation Yrotation
		JOINT rShin
		{
			OFFSET 2.041588 -20.007561 0.000000 
			CHANNELS 3 Xrotation Zrotation Yrotation
			JOINT rFoot
			{
				OFFSET 0.000000 -19.190928 -1.224953 
				CHANNELS 3 Xrotation Yrotation Zrotation
				End Site
				{
					OFFSET 0.000000 -2.449906 4.627600 
				}
			}
		}
	}
}
MOTION
Frames: 10
Frame Time: 0.016667
0.129891 44.894161 -3.362138 2.959450 -1.014270 1.021620 -19.362101 2.946440 -0.651667 18.338699 5.679360 -0.004642 25.161163 -10.177099 -7.113868 15.944300 9.917520 -1.077970 2.000000 -2.000000 0.000000 -87.879997 -5.757510 156.563995 25.224899 -0.338528 0.058325 0.045373 0.005634 -131.414001 -2.000000 2.000000 0.000000 83.676201 1.049040 152.697998 -35.508202 0.326140 0.079411 -0.079258 0.067931 -161.970993 -14.869739 -3.922485 -0.459032 33.728600 2.374272 2.587719 -20.164492 7.854813 3.017480 -19.891426 -2.548665 6.694680 36.204247 -2.671232 -2.602335 -15.109108 -6.318026 -2.726490 
0.231619 44.895187 -3.388774 2.930140 -1.004540 0.055843 -19.322201 2.884330 -0.844999 18.358299 5.698960 -0.120642 25.058598 -10.435186 -6.737950 15.842300 9.844800 -0.934770 2.000000 -2.000000 0.000000 -87.586899 -6.138880 156.330994 25.039301 -0.338716 0.057924 0.045405 0.005960 -131.296997 -2.000000 2.000000 0.000000 83.666100 0.395280 152.442001 -35.596100 0.326018 0.079581 -0.079724 0.068920 -162.360992 -14.804718 -3.977531 -0.102667 33.708801 2.378086 2.589210 -20.271612 8.305701 3.219382 -20.011349 -2.441926 7.269783 36.097076 -2.663664 -2.601734 -14.824234 -6.051751 -2.575094 
0.316713 44.895702 -3.411242 3.017940 -0.887440 -0.857478 -19.134701 2.778620 -1.015070 18.681999 5.729370 -0.196038 25.649639 -10.650740 -6.660816 16.176399 10.013800 -0.810283 2.000000 -2.000000 0.000000 -87.274200 -6.852540 155.981003 24.873301 -0.338883 0.057565 0.045440 0.006314 -131.169998 -2.000000 2.000000 0.000000 83.724098 0.103425 151.914001 -35.566799 0.326059 0.079524 -0.079984 0.069463 -162.576004 -14.763462 -4.119912 0.319233 33.476208 2.348301 2.594857 -20.293213 8.694321 3.445064 -20.267639 -2.444022 7.859506 36.016914 -2.680749 -2.588897 -14.631410 -5.830122 -2.476591 
0.401808 44.896095 -3.433686 3.095980 -0.770358 -1.770310 -18.946800 2.663570 -1.182210 19.015699 5.759650 -0.280856 26.247883 -10.856497 -6.591619 16.520800 10.181700 -0.672328 2.000000 -2.000000 0.000000 -86.961601 -7.556420 155.630997 24.697500 -0.339059 0.057184 0.045476 0.006668 -131.042999 -2.000000 2.000000 0.000000 83.782097 -0.188436 151.386002 -35.537498 0.326100 0.079467 -0.080257 0.070029 -162.800995 -14.783429 -4.255385 0.767104 33.369053 2.340667 2.594845 -20.397245 9.087890 3.646592 -20.495174 -2.460000 8.471652 35.889923 -2.677790 -2.589938 -14.453247 -5.596068 -2.373801 
0.501244 44.890053 -3.452503 3.183780 -0.624035 -2.642240 -18.964701 2.593630 -1.396180 18.946501 5.905890 -0.408976 26.093786 -10.800201 -6.129203 16.343500 10.217500 -0.501950 2.000000 -2.000000 0.000000 -86.834396 -7.771950 155.319000 24.853800 -0.338902 0.057523 0.045451 0.006423 -131.130997 -2.000000 2.000000 0.000000 83.606201 -0.774127 151.268005 -35.332401 0.326383 0.079069 -0.080305 0.070128 -162.839996 -14.802200 -4.422471 1.255766 33.271519 2.329299 2.584308 -20.507448 9.432118 3.831750 -20.785610 -2.524692 8.960478 35.839531 -2.687398 -2.573982 -14.204908 -5.244417 -2.215801 
0.600677 44.884010 -3.471297 3.271600 -0.477736 -3.513720 -18.982401 2.523700 -1.610610 18.877399 6.052110 -0.527677 25.925436 -10.746516 -5.667774 16.166201 10.253300 -0.322002 2.000000 -2.000000 0.000000 -86.716904 -7.977700 155.005997 25.000299 -0.338755 0.057840 0.045426 0.006178 -131.218994 -2.000000 2.000000 0.000000 83.430298 -1.359800 151.139999 -35.117599 0.326679 0.078650 -0.080353 0.070226 -162.878998 -14.822163 -4.585385 1.734412 33.154545 2.315976 2.573065 -20.577049 9.780954 4.029312 -20.996307 -2.616676 9.466888 35.664005 -2.677197 -2.573813 -13.944371 -4.863813 -2.109826 
0.695127 44.888256 -3.478621 3.369260 -0.487437 -4.364720 -18.941999 2.505410 -1.798300 18.886801 6.159510 -0.617633 25.689970 -11.001206 -5.380277 16.160000 10.100500 -0.190031 2.000000 -2.000000 0.000000 -86.599403 -8.467030 154.518997 25.039301 -0.338716 0.057924 0.045456 0.006477 -131.110992 -2.000000 2.000000 0.000000 83.274002 -1.847850 151.031006 -34.951500 0.326906 0.078326 -0.080472 0.070472 -162.975998 -14.877731 -4.634921 1.967263 33.096001 2.313427 2.573492 -20.641472 10.342564 4.286386 -21.229191 -2.507779 9.868180 35.496815 -2.683412 -2.568828 -13.695032 -4.547559 -1.975252 
0.789573 44.892368 -3.485935 3.476690 -0.497130 -5.206070 -18.891701 2.487320 -1.985420 18.886499 6.276650 -0.719732 25.448778 -11.261659 -5.078648 16.143600 9.938600 -0.050279 2.000000 -2.000000 0.000000 -86.481796 -8.946580 154.042007 25.088200 -0.338666 0.058029 0.045490 0.006804 -130.994003 -2.000000 2.000000 0.000000 83.127403 -2.335930 150.932007 -34.775799 0.327146 0.077982 -0.080593 0.070717 -163.074005 -14.924479 -4.680044 2.198787 33.028347 2.306235 2.582565 -20.703882 10.887975 4.536489 -21.482090 -2.393352 10.276939 35.359501 -2.675640 -2.549369 -13.465567 -4.244996 -1.871509 
0.875181 44.893646 -3.496495 3.603600 -0.389853 -5.903520 -18.869900 2.431780 -2.161340 18.905701 6.403610 -0.818887 25.000874 -11.116177 -4.591590 15.852900 9.863540 0.105999 2.000000 -2.000000 0.000000 -86.208397 -9.679460 153.828003 24.902599 -0.338853 0.057628 0.045484 0.006749 -131.014008 -2.000000 2.000000 0.000000 83.039398 -2.755460 150.746002 -34.473000 0.327557 0.077387 -0.080871 0.071282 -163.298996 -14.990718 -4.826987 2.458712 32.891560 2.303379 2.584405 -20.746225 11.291951 4.764478 -21.700708 -2.472500 10.509013 35.183388 -2.674561 -2.551862 -13.258270 -3.857485 -1.748530 
0.960793 44.894939 -3.507076 3.730510 -0.272858 -6.599870 -18.837999 2.367180 -2.333600 18.924999 6.520820 -0.917679 24.553545 -10.969457 -4.105119 15.552600 9.788420 0.261424 2.000000 -2.000000 0.000000 -85.925301 -10.402600 153.604996 24.707300 -0.339049 0.057205 0.045481 0.006722 -131.022995 -2.000000 2.000000 0.000000 82.951302 -3.165210 150.550003 -34.170300 0.327964 0.076790 -0.081164 0.071869 -163.533005 -15.081169 -4.994689 2.712841 32.765781 2.286757 2.592008 -20.759773 11.716022 4.945240 -21.980480 -2.530841 10.744483 35.056091 -2.669159 -2.542663 -13.062268 -3.484518 -1.613236 
